<svg xmlns="http://www.w3.org/2000/svg" viewBox="0 0 300 300">
  <!-- GreenPromo icon: stacked, light background -->
  <!-- Reference icon r=80@(100,100) scaled to r=72@(150,100): translate(60,10) scale(0.9) -->
  <g transform="translate(60, 10) scale(0.9)">
    <circle cx="100" cy="100" r="80" fill="#34a853"/>
    <path d="M60,90 L60,115 L90,115 L130,140 L130,65 L90,90 Z" fill="#FFFFFF"/>
    <path d="M130,62 Q155,78 155,100 Q155,122 130,140" fill="none" stroke="#FFFFFF" stroke-width="4" stroke-linecap="round"/>
    <rect x="50" y="93" width="12" height="18" rx="3" fill="#FFFFFF"/>
    <path d="M145,75 Q163,88 163,100 Q163,112 145,127" fill="none" stroke="#FFFFFF" stroke-width="3" stroke-linecap="round" opacity="0.8"/>
    <path d="M155,65 Q178,82 178,100 Q178,118 155,137" fill="none" stroke="#FFFFFF" stroke-width="2.5" stroke-linecap="round" opacity="0.5"/>
    <line x1="62" y1="70" x2="55" y2="58" stroke="#FFFFFF" stroke-width="2.5" stroke-linecap="round" opacity="0.7"/>
    <line x1="75" y1="65" x2="72" y2="52" stroke="#FFFFFF" stroke-width="2.5" stroke-linecap="round" opacity="0.7"/>
    <line x1="62" y1="135" x2="55" y2="147" stroke="#FFFFFF" stroke-width="2.5" stroke-linecap="round" opacity="0.7"/>
  </g>
  <!-- Brand text centered below icon -->
  <text x="150" y="230" font-family="'Segoe UI', Arial, Helvetica, sans-serif" font-size="42" font-weight="900" fill="#1A1A1A" text-anchor="middle">GreenPromo</text>
  <text x="150" y="265" font-family="'Segoe UI', Arial, Helvetica, sans-serif" font-size="14" font-weight="400" fill="#1A1A1A" text-anchor="middle" letter-spacing="4">EVENTS &amp; ACTIVATIONS</text>
</svg>
